<?xml version="1.0" encoding="UTF-8" standalone="no"?>
<!-- Created with Inkscape (http://www.inkscape.org/) -->

<svg
   xmlns:dc="http://purl.org/dc/elements/1.1/"
   xmlns:cc="http://creativecommons.org/ns#"
   xmlns:rdf="http://www.w3.org/1999/02/22-rdf-syntax-ns#"
   xmlns:svg="http://www.w3.org/2000/svg"
   xmlns="http://www.w3.org/2000/svg"
   xmlns:sodipodi="http://sodipodi.sourceforge.net/DTD/sodipodi-0.dtd"
   xmlns:inkscape="http://www.inkscape.org/namespaces/inkscape"
   id="svg2"
   version="1.1"
   inkscape:version="0.48.3.1 r9886"
   width="545.66876"
   height="765.35376"
   xml:space="preserve"
   sodipodi:docname="151110_aatbat.svg"><metadata
     id="metadata8"><rdf:RDF><cc:Work
         rdf:about=""><dc:format>image/svg+xml</dc:format><dc:type
           rdf:resource="http://purl.org/dc/dcmitype/StillImage" /><dc:title /></cc:Work></rdf:RDF></metadata><defs
     id="defs6" /><sodipodi:namedview
     pagecolor="#cccccc"
     bordercolor="#666666"
     borderopacity="1"
     objecttolerance="10"
     gridtolerance="10"
     guidetolerance="10"
     inkscape:pageopacity="1"
     inkscape:pageshadow="2"
     inkscape:window-width="640"
     inkscape:window-height="480"
     id="namedview4"
     showgrid="false"
     inkscape:zoom="0.27362992"
     inkscape:cx="289.47876"
     inkscape:cy="410.29061"
     inkscape:current-layer="refbuild"
     units="mm"
     guidecolor="#ff0000"
     guideopacity="0.47058824"
     guidehicolor="#00ff00"
     guidehiopacity="1"
     inkscape:snap-global="false"
     showguides="false"
     showborder="false"
     inkscape:showpageshadow="false"><sodipodi:guide
       position="21.259843,754.72441"
       orientation="0,1048.8189"
       id="guide4271" /><sodipodi:guide
       position="1070.0787,754.72441"
       orientation="744.09449,0"
       id="guide4273" /><sodipodi:guide
       position="1070.0787,10.62992"
       orientation="0,-1048.8189"
       id="guide4275" /><sodipodi:guide
       position="21.259843,10.62992"
       orientation="-744.09449,-4.6185278e-14"
       id="guide4277" /><sodipodi:guide
       position="545.669,10.63"
       orientation="-761.31029,0"
       id="guide4301" /><inkscape:grid
       type="xygrid"
       id="grid4326"
       empspacing="5"
       visible="true"
       enabled="true"
       snapvisiblegridlinesonly="true"
       units="mm"
       spacingx="8mm"
       spacingy="8mm"
       originx="10mm" /></sodipodi:namedview><g
     style="display:inline"
     id="refbuild"
     inkscape:groupmode="layer"
     inkscape:label="XX_Referenz"
     sodipodi:insensitive="true"><path
       style="color:#000000;fill:#ffffff;fill-opacity:1;fill-rule:nonzero;stroke:none;stroke-width:0;marker:none;visibility:visible;display:inline;overflow:visible;enable-background:accumulate"
       d="m 10.625,0 0,765.34375 10.625,0 524.40625,0 524.43755,0 10.625,0 0,-765.34375 -10.625,0 L 21.25,0 10.625,0 z"
       id="canvasfull"
       inkscape:connector-curvature="0" /><path
       style="color:#000000;fill:#ff00ff;fill-opacity:1;fill-rule:nonzero;stroke:none;stroke-width:0;marker:none;visibility:visible;display:inline;overflow:visible;enable-background:accumulate"
       d="m 10.625,0 0,765.34375 10.625,0 L 21.25,0 10.625,0 z"
       id="outercropleft"
       inkscape:connector-curvature="0" /><path
       style="color:#000000;fill:#ff00ff;fill-opacity:1;fill-rule:nonzero;stroke:none;stroke-width:0;marker:none;visibility:visible;display:inline;overflow:visible;enable-background:accumulate"
       d="m 10.625,754.71875 0,10.625 535.03125,0 0,-10.625 -535.03125,0 z"
       id="bottomcropleft"
       inkscape:connector-curvature="0" /><path
       style="color:#000000;fill:#ff00ff;fill-opacity:1;fill-rule:nonzero;stroke:none;stroke-width:0;marker:none;visibility:visible;display:inline;overflow:visible;enable-background:accumulate"
       d="m 10.625,0 0,10.625 535.03125,0 0,-10.625 L 10.625,0 z"
       id="topcropleft"
       inkscape:connector-curvature="0" /><path
       style="color:#000000;fill:none;stroke:#0000ff;stroke-width:1;stroke-linecap:butt;stroke-linejoin:miter;stroke-miterlimit:4;stroke-opacity:1;stroke-dasharray:none;stroke-dashoffset:0;marker:none;visibility:visible;display:inline;overflow:visible;enable-background:accumulate"
       d="m 10.629921,-10.00046 0,785.35433"
       id="beforecropleft"
       inkscape:connector-curvature="0"
       sodipodi:nodetypes="cc" /><path
       style="color:#000000;fill:#00ff00;fill-opacity:1;fill-rule:nonzero;stroke:none;stroke-width:0;marker:none;visibility:visible;display:inline;overflow:visible;enable-background:accumulate"
       d="m 1070.0938,0 0,765.34375 10.625,0 0,-765.34375 -10.625,0 z"
       id="outercropright"
       inkscape:connector-curvature="0" /><path
       style="color:#000000;fill:#00ff00;fill-opacity:1;fill-rule:nonzero;stroke:none;stroke-width:0;marker:none;visibility:visible;display:inline;overflow:visible;enable-background:accumulate"
       d="m 545.65625,754.71875 0,10.625 535.06255,0 0,-10.625 -535.06255,0 z"
       id="bottomcropright"
       inkscape:connector-curvature="0" /><path
       style="color:#000000;fill:#00ff00;fill-opacity:1;fill-rule:nonzero;stroke:none;stroke-width:0;marker:none;visibility:visible;display:inline;overflow:visible;enable-background:accumulate"
       d="m 545.65625,0 0,10.625 535.06255,0 0,-10.625 -535.06255,0 z"
       id="topcropright"
       inkscape:connector-curvature="0" /><path
       style="color:#000000;fill:#00ff00;fill-opacity:1;fill-rule:nonzero;stroke:#0000ff;stroke-width:1;stroke-linecap:butt;stroke-linejoin:miter;stroke-miterlimit:4;stroke-opacity:1;stroke-dasharray:none;stroke-dashoffset:0;marker:none;visibility:visible;display:inline;overflow:visible;enable-background:accumulate"
       d="m 1080.7081,-10.00046 0,785.35433"
       id="beforecropright"
       inkscape:connector-curvature="0"
       sodipodi:nodetypes="cc" /><path
       style="color:#000000;fill:#ffff00;fill-opacity:1;fill-rule:nonzero;stroke:#00ff00;stroke-width:0;stroke-linecap:round;stroke-linejoin:miter;stroke-miterlimit:4;stroke-opacity:1;stroke-dashoffset:0;marker:none;visibility:visible;display:inline;overflow:visible;enable-background:accumulate"
       d="m 556.29876,-4.6023438e-4 -10.63,0 0,765.35433023438 10.63,0 z"
       id="innercropright"
       inkscape:connector-curvature="0" /><path
       style="color:#000000;fill:#ffff00;fill-opacity:1;fill-rule:nonzero;stroke:#00ff00;stroke-width:0;stroke-linecap:round;stroke-linejoin:miter;stroke-miterlimit:4;stroke-opacity:1;stroke-dashoffset:0;marker:none;visibility:visible;display:inline;overflow:visible;enable-background:accumulate"
       d="m 545.66876,-4.6023438e-4 -10.63,0 0,765.35433023438 10.63,0 z"
       id="innercropleft"
       inkscape:connector-curvature="0" /><path
       style="opacity:0.5;color:#000000;fill:#ffffff;fill-opacity:1;stroke:none"
       d="m 21.25,10.625 0,744.0937 1048.8438,0 0,-744.0937 -1048.8438,0 z"
       id="canvasoverlay"
       inkscape:connector-curvature="0" /><path
       style="fill:none;stroke:#00ff00;stroke-width:1px;stroke-linecap:butt;stroke-linejoin:miter;stroke-opacity:1;display:inline"
       d="m 545.669,771.94051 0,-778.5270405"
       id="centerbuild"
       inkscape:connector-curvature="0" /></g><g
     inkscape:label="XX_PAGE"
     inkscape:groupmode="layer"
     id="refcanvas"
     style="display:inline"
     sodipodi:insensitive="true"><path
       sodipodi:nodetypes="ccccc"
       inkscape:connector-curvature="0"
       id="canvas"
       d="m 21.259843,10.62935 1048.818857,0 0,744.09449 -1048.818857,0 z"
       style="color:#000000;fill:#ffffff;fill-opacity:1;stroke:none;stroke-width:1;marker:none;visibility:visible;display:inline" /><path
       style="fill:none;stroke:#000000;stroke-width:1px;stroke-linecap:butt;stroke-linejoin:miter;stroke-opacity:1;display:inline"
       d="m 545.669,771.94051 0,-778.5270403"
       id="center"
       inkscape:connector-curvature="0" /></g><g
     style="display:none"
     inkscape:label="XX_REF151007"
     id="g3075"
     inkscape:groupmode="layer"
     sodipodi:insensitive="true"><g
   style="fill:none;stroke:#ff00ff"
   transform="matrix(1.25,0,0,-1.25,674.14812,36.295005)"
   id="g3077"><path
     id="path3079"
     style="fill:none;stroke:#ff00ff;stroke-width:0.199;stroke-linecap:butt;stroke-linejoin:miter;stroke-miterlimit:10;stroke-opacity:1;stroke-dasharray:none"
     d="M 0,0 270.65,0"
     inkscape:connector-curvature="0" /></g><g
   style="fill:none;stroke:#ff00ff"
   transform="matrix(1.25,0,0,-1.25,674.14812,51.331255)"
   id="g3081"><path
     id="path3083"
     style="fill:none;stroke:#ff00ff;stroke-width:0.199;stroke-linecap:butt;stroke-linejoin:miter;stroke-miterlimit:10;stroke-opacity:1;stroke-dasharray:none"
     d="M 0,0 270.65,0"
     inkscape:connector-curvature="0" /></g><g
   style="fill:none;stroke:#ff00ff"
   transform="matrix(1.25,0,0,-1.25,674.14812,69.077505)"
   id="g3085"><path
     id="path3087"
     style="fill:none;stroke:#ff00ff;stroke-width:0.199;stroke-linecap:butt;stroke-linejoin:miter;stroke-miterlimit:10;stroke-opacity:1;stroke-dasharray:none"
     d="M 0,0 270.65,0"
     inkscape:connector-curvature="0" /></g><g
   style="fill:none;stroke:#ff00ff"
   transform="matrix(1.25,0,0,-1.25,674.02312,650.8675)"
   id="g3089"><path
     id="path3091"
     style="fill:none;stroke:#ff00ff;stroke-width:0.199;stroke-linecap:butt;stroke-linejoin:miter;stroke-miterlimit:10;stroke-opacity:1;stroke-dasharray:none"
     d="M 0,0 0,465.332"
     inkscape:connector-curvature="0" /></g><g
   style="fill:none;stroke:#ff00ff"
   transform="matrix(1.25,0,0,-1.25,1012.5844,650.8675)"
   id="g3093"><path
     id="path3095"
     style="fill:none;stroke:#ff00ff;stroke-width:0.199;stroke-linecap:butt;stroke-linejoin:miter;stroke-miterlimit:10;stroke-opacity:1;stroke-dasharray:none"
     d="M 0,0 0,465.332"
     inkscape:connector-curvature="0" /></g><g
   style="fill:none;stroke:#ff00ff"
   transform="matrix(1.25,0,0,-1.25,1017.5656,650.8675)"
   id="g3097"><path
     id="path3099"
     style="fill:none;stroke:#ff00ff;stroke-width:0.199;stroke-linecap:butt;stroke-linejoin:miter;stroke-miterlimit:10;stroke-opacity:1;stroke-dasharray:none"
     d="M 0,0 0,465.332"
     inkscape:connector-curvature="0" /></g><g
   style="fill:none;stroke:#ff00ff"
   transform="matrix(1.25,0,0,-1.25,1105.8994,650.8675)"
   id="g3101"><path
     id="path3103"
     style="fill:none;stroke:#ff00ff;stroke-width:0.199;stroke-linecap:butt;stroke-linejoin:miter;stroke-miterlimit:10;stroke-opacity:1;stroke-dasharray:none"
     d="M 0,0 0,465.332"
     inkscape:connector-curvature="0" /></g><g
   style="fill:none;stroke:#ff00ff"
   transform="matrix(1.25,0,0,-1.25,674.14812,650.7425)"
   id="g3105"><path
     id="path3107"
     style="fill:none;stroke:#ff00ff;stroke-width:0.199;stroke-linecap:butt;stroke-linejoin:miter;stroke-miterlimit:10;stroke-opacity:1;stroke-dasharray:none"
     d="M 0,0 270.65,0"
     inkscape:connector-curvature="0" /></g><g
   style="fill:none;stroke:#ff00ff"
   transform="matrix(1.25,0,0,-1.25,674.14812,704.14125)"
   id="g3109"><path
     id="path3111"
     style="fill:none;stroke:#ff00ff;stroke-width:0.199;stroke-linecap:butt;stroke-linejoin:miter;stroke-miterlimit:10;stroke-opacity:1;stroke-dasharray:none"
     d="M 0,0 270.65,0"
     inkscape:connector-curvature="0" /></g><text
   id="text3113"
   x="587.19934"
   y="715.59247"
   style="font-size:15px;fill:#ff00ff;stroke:none"><tspan
     id="tspan3115"
     y="715.59247"
     x="587.19934"
     style="font-size:6.22662497px;font-variant:normal;writing-mode:lr-tb;fill:#ff00ff;fill-opacity:1;fill-rule:nonzero;stroke:none;font-family:Nimbus Sans L;-inkscape-font-specification:NimbusSanL-Regu">1</tspan></text>



<path
   d="m 78.807421,36.295005 338.312509,0"
   style="fill:none;stroke:#ff00ff;stroke-width:0.24875;stroke-linecap:butt;stroke-linejoin:miter;stroke-miterlimit:10;stroke-opacity:1;stroke-dasharray:none"
   id="path3117"
   inkscape:connector-curvature="0" /><path
   d="m 78.807421,51.331255 338.312509,0"
   style="fill:none;stroke:#ff00ff;stroke-width:0.24875;stroke-linecap:butt;stroke-linejoin:miter;stroke-miterlimit:10;stroke-opacity:1;stroke-dasharray:none"
   id="path3119"
   inkscape:connector-curvature="0" /><path
   d="m 78.807421,69.077505 338.312509,0"
   style="fill:none;stroke:#ff00ff;stroke-width:0.24875;stroke-linecap:butt;stroke-linejoin:miter;stroke-miterlimit:10;stroke-opacity:1;stroke-dasharray:none"
   id="path3121"
   inkscape:connector-curvature="0" /><path
   d="m -14.881329,650.8675 0,-581.664995"
   style="fill:none;stroke:#ff00ff;stroke-width:0.24875;stroke-linecap:butt;stroke-linejoin:miter;stroke-miterlimit:10;stroke-opacity:1;stroke-dasharray:none"
   id="path3123"
   inkscape:connector-curvature="0" /><path
   d="m 73.949921,650.8675 0,-581.664995"
   style="fill:none;stroke:#ff00ff;stroke-width:0.24875;stroke-linecap:butt;stroke-linejoin:miter;stroke-miterlimit:10;stroke-opacity:1;stroke-dasharray:none"
   id="path3125"
   inkscape:connector-curvature="0" /><path
   d="m 78.682421,650.8675 0,-581.664995"
   style="fill:none;stroke:#ff00ff;stroke-width:0.24875;stroke-linecap:butt;stroke-linejoin:miter;stroke-miterlimit:10;stroke-opacity:1;stroke-dasharray:none"
   id="path3127"
   inkscape:connector-curvature="0" /><path
   d="m 417.24368,650.8675 0,-581.664995"
   style="fill:none;stroke:#ff00ff;stroke-width:0.24875;stroke-linecap:butt;stroke-linejoin:miter;stroke-miterlimit:10;stroke-opacity:1;stroke-dasharray:none"
   id="path3129"
   inkscape:connector-curvature="0" /><path
   d="m 78.807421,650.7425 338.312509,0"
   style="fill:none;stroke:#ff00ff;stroke-width:0.24875;stroke-linecap:butt;stroke-linejoin:miter;stroke-miterlimit:10;stroke-opacity:1;stroke-dasharray:none"
   id="path3131"
   inkscape:connector-curvature="0" /><path
   d="m 78.807421,704.14125 338.312509,0"
   style="fill:none;stroke:#ff00ff;stroke-width:0.24875;stroke-linecap:butt;stroke-linejoin:miter;stroke-miterlimit:10;stroke-opacity:1;stroke-dasharray:none"
   id="path3133"
   inkscape:connector-curvature="0" /><text
   y="715.59247"
   x="500.60495"
   id="text3135"
   style="font-size:15px;fill:#ff00ff;stroke:none"><tspan
     style="font-size:6.22662497px;font-variant:normal;writing-mode:lr-tb;fill:#ff00ff;fill-opacity:1;fill-rule:nonzero;stroke:none;font-family:Nimbus Sans L;-inkscape-font-specification:NimbusSanL-Regu"
     x="500.60495"
     y="715.59247"
     id="tspan3137">2</tspan></text>



<path
   inkscape:connector-curvature="0"
   id="path68"
   style="color:#000000;fill:none;stroke:#ff00ff;stroke-width:0.24875;stroke-linecap:butt;stroke-linejoin:miter;stroke-miterlimit:10;stroke-opacity:1;stroke-dasharray:none;stroke-dashoffset:0;marker:none;visibility:visible;display:inline;overflow:visible;enable-background:accumulate"
   d="m 607.60179,70.73733 33.219,0 0,33.219 -33.219,0 0,-33.219 z" /><path
   inkscape:connector-curvature="0"
   id="path68-3"
   style="fill:#ffffff;fill-opacity:1;fill-rule:nonzero;stroke:#ff00ff;stroke-width:0.44292;stroke-linecap:butt;stroke-linejoin:miter;stroke-miterlimit:4;stroke-opacity:1;stroke-dasharray:none"
   d="m 449.1186,70.737325 33.219,0 0,33.218995 -33.219,0 0,-33.218995 z" /></g><g
     inkscape:groupmode="layer"
     id="layer1"
     inkscape:label="001"
     style="display:none"><g
       id="g3168"
       transform="matrix(-1,0,0,1,1091.3487,0)"><path
         style="color:#000000;fill:#00ffff;fill-opacity:1;stroke:none;stroke-width:1;marker:none;visibility:visible;display:inline"
         d="m 10.629921,-5.7023438e-4 545.669289,0 0,765.35433023438 -545.669289,0 z"
         id="canvas-7-8"
         inkscape:connector-curvature="0"
         sodipodi:nodetypes="ccccc" /><path
         inkscape:connector-curvature="0"
         id="rect3119-3"
         d="m 84.01575,166.77109 318.89764,0 0,726.37795 -318.89764,0 z"
         style="color:#000000;fill:#00ff00;fill-opacity:1;fill-rule:nonzero;stroke:none;stroke-width:1px;marker:none;visibility:visible;display:inline;overflow:visible;enable-background:accumulate" /></g></g><g
     inkscape:label="002"
     inkscape:groupmode="layer"
     id="content"
     style="display:inline"><text
   xml:space="preserve"
   style="font-size:23.53348923px;font-style:normal;font-variant:normal;font-weight:bold;font-stretch:normal;text-align:start;line-height:125%;letter-spacing:0px;word-spacing:0px;writing-mode:lr-tb;text-anchor:start;fill:#000000;fill-opacity:1;stroke:none;font-family:HK Grotesk;-inkscape-font-specification:HK Grotesk Bold"
   x="-1009.9748"
   y="-175.16498"
   id="text3005"
   sodipodi:linespacing="125%"
   transform="scale(-1,-1)"><tspan
     sodipodi:role="line"
     id="tspan3007"
     x="-1009.9748"
     y="-175.16498">Appropriation</tspan><tspan
     sodipodi:role="line"
     x="-1009.9748"
     y="-145.74812"
     id="tspan3011">and Type</tspan></text>







<text
   sodipodi:linespacing="125%"
   id="text3045"
   y="-353.95581"
   x="737.56097"
   style="font-size:23.53348923px;font-style:normal;font-variant:normal;font-weight:bold;font-stretch:normal;text-align:start;line-height:125%;letter-spacing:0px;word-spacing:0px;writing-mode:lr-tb;text-anchor:start;fill:#000000;fill-opacity:1;stroke:none;font-family:HK Grotesk;-inkscape-font-specification:HK Grotesk Bold"
   xml:space="preserve"><tspan
     y="-353.95581"
     x="737.56097"
     id="tspan3047"
     sodipodi:role="line">Appropriation</tspan><tspan
     id="tspan3049"
     y="-324.53894"
     x="737.56097"
     sodipodi:role="line">and Type</tspan></text>

<g
   id="g3188"><path
     inkscape:connector-curvature="0"
     id="rect3118"
     d="m 1000.0446,-377.07483 30,0 0,29.99993 -30,0 z"
     style="opacity:0.5;color:#000000;fill:#ff00ff;stroke:none;stroke-width:0.24875;marker:none;visibility:visible;display:inline;overflow:visible;enable-background:accumulate" /><path
     d="m 1022.6224,-353.95581 -6.4717,-16.23811 -2.1886,0 -6.4953,16.23811 3.1771,0 1.2472,-3.53002 6.307,0 1.2708,3.53002 3.1535,0 m -9.7429,-6.02457 2.1887,-5.90691 2.165,5.90691 -4.3537,0"
     style="font-size:23.53348923px;font-style:normal;font-variant:normal;font-weight:bold;font-stretch:normal;text-align:start;line-height:125%;letter-spacing:0px;word-spacing:0px;writing-mode:lr-tb;text-anchor:start;fill:#000000;fill-opacity:1;stroke:none;font-family:HK Grotesk;-inkscape-font-specification:HK Grotesk Bold"
     id="path3058"
     inkscape:connector-curvature="0" /></g><g
   id="g3130"><path
     style="opacity:0.5;color:#000000;fill:#ff00ff;stroke:none;stroke-width:0.24875;marker:none;visibility:visible;display:inline;overflow:visible;enable-background:accumulate"
     d="m 1028.2856,-377.07483 30,0 0,29.99993 -30,0 z"
     id="path3128"
     inkscape:connector-curvature="0" /><path
     d="m 1043.921,-353.72048 c 3.1064,0 4.8949,-2.80048 4.8949,-5.9775 0,-3.17702 -1.7885,-5.97751 -4.8949,-5.97751 -1.2473,0 -2.4475,0.32947 -3.3183,1.38848 l 0,-1.15314 -2.8475,0 0,16.52051 2.8475,0 0,-6.18931 c 0.8237,0.9884 2.071,1.38847 3.3183,1.38847 m -0.7296,-9.43692 c 1.8827,0 2.777,1.52967 2.777,3.45942 0,1.92974 -0.8943,3.38882 -2.777,3.38882 -1.8591,0 -2.7063,-1.45908 -2.7063,-3.38882 0,-1.92975 0.8472,-3.45942 2.7063,-3.45942"
     style="font-size:23.53348923px;font-style:normal;font-variant:normal;font-weight:bold;font-stretch:normal;text-align:start;line-height:125%;letter-spacing:0px;word-spacing:0px;writing-mode:lr-tb;text-anchor:start;fill:#000000;fill-opacity:1;stroke:none;font-family:HK Grotesk;-inkscape-font-specification:HK Grotesk Bold"
     id="path3062"
     inkscape:connector-curvature="0" /></g><g
   id="g3142"><path
     style="opacity:0.5;color:#000000;fill:#ff00ff;stroke:none;stroke-width:0.24875;marker:none;visibility:visible;display:inline;overflow:visible;enable-background:accumulate"
     d="m 1040.1527,-377.07483 30,0 0,29.99993 -30,0 z"
     id="path3140"
     inkscape:connector-curvature="0" /><path
     d="m 1056.6824,-365.60489 c -0.9649,0 -1.9533,0.44714 -2.7535,1.62381 l 0,-1.45907 -2.7299,0 0,11.48434 2.7064,0 0,-5.31857 c 0,-2.04741 1.0825,-3.67122 2.6593,-3.67122 0.5177,0 0.8472,0.0706 1.1531,0.30593 l 0.1177,0.0941 1.2708,-2.30629 -0.094,-0.0706 c -0.659,-0.51773 -1.6238,-0.68247 -2.3298,-0.68247"
     style="font-size:23.53348923px;font-style:normal;font-variant:normal;font-weight:bold;font-stretch:normal;text-align:start;line-height:125%;letter-spacing:0px;word-spacing:0px;writing-mode:lr-tb;text-anchor:start;fill:#000000;fill-opacity:1;stroke:none;font-family:HK Grotesk;-inkscape-font-specification:HK Grotesk Bold"
     id="path3064"
     inkscape:connector-curvature="0" /></g><g
   id="g3148"><path
     style="opacity:0.5;color:#000000;fill:#ff00ff;stroke:none;stroke-width:0.24875;marker:none;visibility:visible;display:inline;overflow:visible;enable-background:accumulate"
     d="m 1049.8283,-377.07483 30,0 0,29.99993 -30,0 z"
     id="path3146"
     inkscape:connector-curvature="0" /><path
     d="m 1064.8282,-356.14443 c -2.118,0 -2.9652,-1.62381 -2.9652,-3.50648 0,-1.88268 0.8472,-3.50649 2.9652,-3.50649 2.1181,0 2.9653,1.62381 2.9653,3.50649 0,1.88267 -0.8472,3.50648 -2.9653,3.50648 m 0,-9.43692 c -3.5535,0 -6.001,2.68282 -6.001,5.93044 0,3.24761 2.4475,5.93043 6.001,5.93043 3.5536,0 6.0011,-2.68282 6.0011,-5.93043 0,-3.24762 -2.4475,-5.93044 -6.0011,-5.93044"
     style="font-size:23.53348923px;font-style:normal;font-variant:normal;font-weight:bold;font-stretch:normal;text-align:start;line-height:125%;letter-spacing:0px;word-spacing:0px;writing-mode:lr-tb;text-anchor:start;fill:#000000;fill-opacity:1;stroke:none;font-family:HK Grotesk;-inkscape-font-specification:HK Grotesk Bold"
     id="path3066"
     inkscape:connector-curvature="0" /></g><g
   id="g3154"><path
     style="opacity:0.5;color:#000000;fill:#ff00ff;stroke:none;stroke-width:0.24875;marker:none;visibility:visible;display:inline;overflow:visible;enable-background:accumulate"
     d="m 1063.8616,-377.07483 30,0 0,29.99993 -30,0 z"
     id="path3152"
     inkscape:connector-curvature="0" /><path
     d="m 1079.497,-353.72048 c 3.1064,0 4.8949,-2.80048 4.8949,-5.9775 0,-3.17702 -1.7885,-5.97751 -4.8949,-5.97751 -1.2473,0 -2.4475,0.32947 -3.3183,1.38848 l 0,-1.15314 -2.8475,0 0,16.52051 2.8475,0 0,-6.18931 c 0.8237,0.9884 2.071,1.38847 3.3183,1.38847 m -0.7296,-9.43692 c 1.8827,0 2.777,1.52967 2.777,3.45942 0,1.92974 -0.8943,3.38882 -2.777,3.38882 -1.8591,0 -2.7063,-1.45908 -2.7063,-3.38882 0,-1.92975 0.8472,-3.45942 2.7063,-3.45942"
     style="font-size:23.53348923px;font-style:normal;font-variant:normal;font-weight:bold;font-stretch:normal;text-align:start;line-height:125%;letter-spacing:0px;word-spacing:0px;writing-mode:lr-tb;text-anchor:start;fill:#000000;fill-opacity:1;stroke:none;font-family:HK Grotesk;-inkscape-font-specification:HK Grotesk Bold"
     id="path3068"
     inkscape:connector-curvature="0" /></g><path
   inkscape:connector-curvature="0"
   id="path3070"
   style="font-size:23.53348923px;font-style:normal;font-variant:normal;font-weight:bold;font-stretch:normal;text-align:start;line-height:125%;letter-spacing:0px;word-spacing:0px;writing-mode:lr-tb;text-anchor:start;fill:#000000;fill-opacity:1;stroke:none;font-family:HK Grotesk;-inkscape-font-specification:HK Grotesk Bold"
   d="m 1092.2584,-365.60489 c -0.9649,0 -1.9533,0.44714 -2.7534,1.62381 l 0,-1.45907 -2.7299,0 0,11.48434 2.7063,0 0,-5.31857 c 0,-2.04741 1.0826,-3.67122 2.6593,-3.67122 0.5177,0 0.8472,0.0706 1.1531,0.30593 l 0.1177,0.0941 1.2708,-2.30629 -0.094,-0.0706 c -0.659,-0.51773 -1.6238,-0.68247 -2.3298,-0.68247" /><g
   id="g3160"><path
     style="opacity:0.5;color:#000000;fill:#ff00ff;stroke:none;stroke-width:0.24875;marker:none;visibility:visible;display:inline;overflow:visible;enable-background:accumulate"
     d="m 1082.6189,-377.07483 30,0 0,29.99993 -30,0 z"
     id="path3158"
     inkscape:connector-curvature="0" /><path
     d="m 1096.219,-353.95581 2.7769,0 0,-11.48434 -2.7769,0 0,11.48434 m -0.071,-13.15522 2.9417,0 0,-3.15349 -2.9417,0 0,3.15349"
     style="font-size:23.53348923px;font-style:normal;font-variant:normal;font-weight:bold;font-stretch:normal;text-align:start;line-height:125%;letter-spacing:0px;word-spacing:0px;writing-mode:lr-tb;text-anchor:start;fill:#000000;fill-opacity:1;stroke:none;font-family:HK Grotesk;-inkscape-font-specification:HK Grotesk Bold"
     id="path3072"
     inkscape:connector-curvature="0" /></g><g
   id="g3166"><path
     style="opacity:0.5;color:#000000;fill:#ff00ff;stroke:none;stroke-width:0.24875;marker:none;visibility:visible;display:inline;overflow:visible;enable-background:accumulate"
     d="m 1091.6976,-377.07483 30,0 0,29.99993 -30,0 z"
     id="path3164"
     inkscape:connector-curvature="0" /><path
     d="m 1106.3799,-358.78018 2.8241,0 c -0.047,1.43555 -1.3885,2.68282 -2.9888,2.68282 -1.0825,0 -1.8356,-0.54127 -1.8356,-1.29434 0,-0.72954 0.7295,-1.38848 2.0003,-1.38848 m -0.6824,5.0597 c 1.5296,0 2.7063,-0.44713 3.6947,-1.88267 l 0.306,1.64734 2.1886,0 0,-6.96591 c 0,-2.80049 -1.8356,-4.7067 -4.9656,-4.7067 -2.1651,0 -3.6477,0.87074 -4.8244,2.47102 l 2.1416,1.55321 c 0.4471,-0.80014 1.4355,-1.57675 2.5887,-1.57675 1.6708,0 2.3769,0.91781 2.3769,2.37688 l -2.9888,0 c -2.5651,0 -4.7067,0.77661 -4.7067,3.41236 0,2.25921 2.0004,3.67122 4.189,3.67122"
     style="font-size:23.53348923px;font-style:normal;font-variant:normal;font-weight:bold;font-stretch:normal;text-align:start;line-height:125%;letter-spacing:0px;word-spacing:0px;writing-mode:lr-tb;text-anchor:start;fill:#000000;fill-opacity:1;stroke:none;font-family:HK Grotesk;-inkscape-font-specification:HK Grotesk Bold"
     id="path3074"
     inkscape:connector-curvature="0" /></g><path
   inkscape:connector-curvature="0"
   id="path3076"
   style="font-size:23.53348923px;font-style:normal;font-variant:normal;font-weight:bold;font-stretch:normal;text-align:start;line-height:125%;letter-spacing:0px;word-spacing:0px;writing-mode:lr-tb;text-anchor:start;fill:#000000;fill-opacity:1;stroke:none;font-family:HK Grotesk;-inkscape-font-specification:HK Grotesk Bold"
   d="m 1120.8633,-354.07348 0,-2.54161 c 0,0 -0.6825,0.40006 -1.9297,0.40006 -0.5413,0 -1.059,-0.1412 -1.059,-0.94134 l 0,-5.74217 2.9887,0 0,-2.54161 -2.9887,0 0,-4.8479 -2.6358,2.00034 0,2.84756 -1.9062,0 0,2.54161 1.8592,0 0,5.76571 c 0,1.92974 1.0119,3.41235 3.3417,3.41235 1.5767,0 2.3298,-0.353 2.3298,-0.353" /><g
   id="g3172"><path
     style="opacity:0.5;color:#000000;fill:#ff00ff;stroke:none;stroke-width:0.24875;marker:none;visibility:visible;display:inline;overflow:visible;enable-background:accumulate"
     d="m 1109.4618,-377.07483 30,0 0,29.99993 -30,0 z"
     id="path3170"
     inkscape:connector-curvature="0" /><path
     d="m 1123.0619,-353.95581 2.7769,0 0,-11.48434 -2.7769,0 0,11.48434 m -0.071,-13.15522 2.9417,0 0,-3.15349 -2.9417,0 0,3.15349"
     style="font-size:23.53348923px;font-style:normal;font-variant:normal;font-weight:bold;font-stretch:normal;text-align:start;line-height:125%;letter-spacing:0px;word-spacing:0px;writing-mode:lr-tb;text-anchor:start;fill:#000000;fill-opacity:1;stroke:none;font-family:HK Grotesk;-inkscape-font-specification:HK Grotesk Bold"
     id="path3078"
     inkscape:connector-curvature="0" /></g><g
   id="g3178"><path
     style="opacity:0.5;color:#000000;fill:#ff00ff;stroke:none;stroke-width:0.24875;marker:none;visibility:visible;display:inline;overflow:visible;enable-background:accumulate"
     d="m 1119.1877,-377.07483 30,0 0,29.99993 -30,0 z"
     id="path3176"
     inkscape:connector-curvature="0" /><path
     d="m 1134.1877,-356.14443 c -2.118,0 -2.9652,-1.62381 -2.9652,-3.50648 0,-1.88268 0.8472,-3.50649 2.9652,-3.50649 2.118,0 2.9652,1.62381 2.9652,3.50649 0,1.88267 -0.8472,3.50648 -2.9652,3.50648 m 0,-9.43692 c -3.5536,0 -6.001,2.68282 -6.001,5.93044 0,3.24761 2.4474,5.93043 6.001,5.93043 3.5535,0 6.001,-2.68282 6.001,-5.93043 0,-3.24762 -2.4475,-5.93044 -6.001,-5.93044"
     style="font-size:23.53348923px;font-style:normal;font-variant:normal;font-weight:bold;font-stretch:normal;text-align:start;line-height:125%;letter-spacing:0px;word-spacing:0px;writing-mode:lr-tb;text-anchor:start;fill:#000000;fill-opacity:1;stroke:none;font-family:HK Grotesk;-inkscape-font-specification:HK Grotesk Bold"
     id="path3080"
     inkscape:connector-curvature="0" /></g><g
   id="g3184"><path
     style="opacity:0.5;color:#000000;fill:#ff00ff;stroke:none;stroke-width:0.24875;marker:none;visibility:visible;display:inline;overflow:visible;enable-background:accumulate"
     d="m 1132.868,-377.07483 30,0 0,29.99993 -30,0 z"
     id="path3182"
     inkscape:connector-curvature="0" /><path
     d="m 1145.5147,-364.09874 0,-1.34141 -2.8476,0 0,11.46081 2.8476,0 0,-6.25991 c 0,-1.43554 1.3178,-2.77695 2.871,-2.77695 1.4591,0 1.8357,1.10607 1.8357,2.51808 l 0,6.54231 2.8475,0 0,-6.89531 c 0,-2.40042 -1.2237,-4.7773 -4.236,-4.7773 -1.1296,0 -2.4004,0.40007 -3.3182,1.52968"
     style="font-size:23.53348923px;font-style:normal;font-variant:normal;font-weight:bold;font-stretch:normal;text-align:start;line-height:125%;letter-spacing:0px;word-spacing:0px;writing-mode:lr-tb;text-anchor:start;fill:#000000;fill-opacity:1;stroke:none;font-family:HK Grotesk;-inkscape-font-specification:HK Grotesk Bold"
     id="path3082"
     inkscape:connector-curvature="0" /></g><path
   inkscape:connector-curvature="0"
   id="path3084"
   style="font-size:23.53348923px;font-style:normal;font-variant:normal;font-weight:bold;font-stretch:normal;text-align:start;line-height:125%;letter-spacing:0px;word-spacing:0px;writing-mode:lr-tb;text-anchor:start;fill:#000000;fill-opacity:1;stroke:none;font-family:HK Grotesk;-inkscape-font-specification:HK Grotesk Bold"
   d="m 1013.3031,-329.36331 2.8241,0 c -0.047,1.43554 -1.3885,2.68281 -2.9888,2.68281 -1.0825,0 -1.8356,-0.54127 -1.8356,-1.29434 0,-0.72954 0.7295,-1.38847 2.0003,-1.38847 m -0.6824,5.0597 c 1.5296,0 2.7063,-0.44714 3.6947,-1.88268 l 0.306,1.64734 2.1886,0 0,-6.96591 c 0,-2.80048 -1.8356,-4.7067 -4.9656,-4.7067 -2.1651,0 -3.6477,0.87074 -4.8243,2.47102 l 2.1415,1.55321 c 0.4471,-0.80014 1.4355,-1.57675 2.5887,-1.57675 1.6709,0 2.3769,0.91781 2.3769,2.37689 l -2.9888,0 c -2.5651,0 -4.7067,0.7766 -4.7067,3.41235 0,2.25921 2.0004,3.67123 4.189,3.67123" /><path
   inkscape:connector-curvature="0"
   id="path3086"
   style="font-size:23.53348923px;font-style:normal;font-variant:normal;font-weight:bold;font-stretch:normal;text-align:start;line-height:125%;letter-spacing:0px;word-spacing:0px;writing-mode:lr-tb;text-anchor:start;fill:#000000;fill-opacity:1;stroke:none;font-family:HK Grotesk;-inkscape-font-specification:HK Grotesk Bold"
   d="m 1024.4918,-334.68188 0,-1.34141 -2.8475,0 0,11.46081 2.8475,0 0,-6.25991 c 0,-1.43554 1.3179,-2.77695 2.8711,-2.77695 1.4591,0 1.8356,1.10607 1.8356,2.51808 l 0,6.54231 2.8476,0 0,-6.89531 c 0,-2.40041 -1.2237,-4.7773 -4.236,-4.7773 -1.1296,0 -2.4004,0.40007 -3.3183,1.52968" /><path
   inkscape:connector-curvature="0"
   id="path3088"
   style="font-size:23.53348923px;font-style:normal;font-variant:normal;font-weight:bold;font-stretch:normal;text-align:start;line-height:125%;letter-spacing:0px;word-spacing:0px;writing-mode:lr-tb;text-anchor:start;fill:#000000;fill-opacity:1;stroke:none;font-family:HK Grotesk;-inkscape-font-specification:HK Grotesk Bold"
   d="m 1042.5192,-334.87015 c -0.8236,-0.98841 -2.0474,-1.38848 -3.3182,-1.38848 -3.1064,0 -4.8714,2.80049 -4.8714,5.97751 0,3.17702 1.765,5.97751 4.8714,5.97751 1.2473,0 2.4475,-0.32947 3.3182,-1.38848 l 0,1.15314 2.8476,0 0,-16.23811 -2.8476,0 0,5.90691 m -2.5886,7.97785 c -1.8827,0 -2.777,-1.45908 -2.777,-3.38882 0,-1.90621 0.8943,-3.43589 2.777,-3.43589 1.8591,0 2.7063,1.50615 2.7063,3.43589 0,1.95328 -0.8472,3.38882 -2.7063,3.38882" /><path
   inkscape:connector-curvature="0"
   id="path3090"
   style="font-size:23.53348923px;font-style:normal;font-variant:normal;font-weight:bold;font-stretch:normal;text-align:start;line-height:125%;letter-spacing:0px;word-spacing:0px;writing-mode:lr-tb;text-anchor:start;fill:#000000;fill-opacity:1;stroke:none;font-family:HK Grotesk;-inkscape-font-specification:HK Grotesk Bold"
   d="m 1053.6425,-338.16484 5.0832,0 0,13.62589 2.9182,0 0,-13.62589 5.0832,0 0,-2.61222 -13.0846,0 0,2.61222" /><path
   inkscape:connector-curvature="0"
   id="path3092"
   style="font-size:23.53348923px;font-style:normal;font-variant:normal;font-weight:bold;font-stretch:normal;text-align:start;line-height:125%;letter-spacing:0px;word-spacing:0px;writing-mode:lr-tb;text-anchor:start;fill:#000000;fill-opacity:1;stroke:none;font-family:HK Grotesk;-inkscape-font-specification:HK Grotesk Bold"
   d="m 1067.9406,-336.02329 -3.0829,0 4.4949,11.17841 -2.1181,5.24796 3.0594,0 6.5658,-16.42637 -3.0828,0 -2.9417,7.97785 -2.8946,-7.97785" /><path
   inkscape:connector-curvature="0"
   id="path3094"
   style="font-size:23.53348923px;font-style:normal;font-variant:normal;font-weight:bold;font-stretch:normal;text-align:start;line-height:125%;letter-spacing:0px;word-spacing:0px;writing-mode:lr-tb;text-anchor:start;fill:#000000;fill-opacity:1;stroke:none;font-family:HK Grotesk;-inkscape-font-specification:HK Grotesk Bold"
   d="m 1084.9207,-324.30361 c 3.1064,0 4.895,-2.80049 4.895,-5.97751 0,-3.17702 -1.7886,-5.97751 -4.895,-5.97751 -1.2473,0 -2.4475,0.32947 -3.3182,1.38848 l 0,-1.15314 -2.8476,0 0,16.52051 2.8476,0 0,-6.18931 c 0.8237,0.98841 2.0709,1.38848 3.3182,1.38848 m -0.7295,-9.43693 c 1.8826,0 2.7769,1.52968 2.7769,3.45942 0,1.92974 -0.8943,3.38882 -2.7769,3.38882 -1.8592,0 -2.7064,-1.45908 -2.7064,-3.38882 0,-1.92974 0.8472,-3.45942 2.7064,-3.45942" /><path
   inkscape:connector-curvature="0"
   id="path3096"
   style="font-size:23.53348923px;font-style:normal;font-variant:normal;font-weight:bold;font-stretch:normal;text-align:start;line-height:125%;letter-spacing:0px;word-spacing:0px;writing-mode:lr-tb;text-anchor:start;fill:#000000;fill-opacity:1;stroke:none;font-family:HK Grotesk;-inkscape-font-specification:HK Grotesk Bold"
   d="m 1096.5996,-333.81114 c 1.6473,0 2.4474,0.87074 2.6357,2.42395 l -5.2009,0 c 0.2118,-1.38848 0.9884,-2.42395 2.5652,-2.42395 m 3.0358,5.74217 c -0.8237,0.8472 -1.6238,1.059 -2.8711,1.059 -1.6709,0 -2.5651,-0.94134 -2.7534,-2.35334 l 7.8837,0 c 0,0 0.094,-0.35301 0.094,-0.87074 0,-2.96522 -1.2237,-5.93044 -5.3891,-5.93044 -3.7654,0 -5.5304,2.94169 -5.5304,5.95397 0,3.05935 1.8827,5.81277 5.7186,5.81277 1.9062,0 3.4359,-0.54127 4.7773,-1.97681 l -1.9297,-1.69441" /><g
   id="g3136"><path
     style="opacity:0.5;color:#000000;fill:#ff00ff;stroke:none;stroke-width:0.24875;marker:none;visibility:visible;display:inline;overflow:visible;enable-background:accumulate"
     d="m 1014.8182,-377.07483 30,0 0,29.99993 -30,0 z"
     id="path3122"
     inkscape:connector-curvature="0" /><path
     d="m 1030.4535,-353.72048 c 3.1065,0 4.895,-2.80048 4.895,-5.9775 0,-3.17702 -1.7885,-5.97751 -4.895,-5.97751 -1.2472,0 -2.4474,0.32947 -3.3182,1.38848 l 0,-1.15314 -2.8475,0 0,16.52051 2.8475,0 0,-6.18931 c 0.8237,0.9884 2.071,1.38847 3.3182,1.38847 m -0.7295,-9.43692 c 1.8827,0 2.777,1.52967 2.777,3.45942 0,1.92974 -0.8943,3.38882 -2.777,3.38882 -1.8591,0 -2.7063,-1.45908 -2.7063,-3.38882 0,-1.92975 0.8472,-3.45942 2.7063,-3.45942"
     style="font-size:23.53348923px;font-style:normal;font-variant:normal;font-weight:bold;font-stretch:normal;text-align:start;line-height:125%;letter-spacing:0px;word-spacing:0px;writing-mode:lr-tb;text-anchor:start;fill:#000000;fill-opacity:1;stroke:none;font-family:HK Grotesk;-inkscape-font-specification:HK Grotesk Bold"
     id="path3060"
     inkscape:connector-curvature="0" /></g><path
   d="m 1007.4668,-420.19392 6.4717,16.23811 2.1886,0 6.4953,-16.23811 -3.1771,0 -1.2472,3.53002 -6.307,0 -1.2708,-3.53002 -3.1535,0 m 9.7429,6.02457 -2.1887,5.90691 -2.165,-5.90691 4.3537,0"
   style="font-size:23.53348923px;font-style:normal;font-variant:normal;font-weight:bold;font-stretch:normal;text-align:start;line-height:125%;letter-spacing:0px;word-spacing:0px;writing-mode:lr-tb;text-anchor:start;fill:#000000;fill-opacity:1;stroke:none;font-family:HK Grotesk;-inkscape-font-specification:HK Grotesk Bold"
   id="path3196"
   inkscape:connector-curvature="0" /><path
   d="m 1042.6502,-420.42925 c -3.1064,0 -4.8949,2.80048 -4.8949,5.9775 0,3.17702 1.7885,5.97751 4.8949,5.97751 1.2473,0 2.4475,-0.32947 3.3183,-1.38848 l 0,1.15314 2.8475,0 0,-16.52051 -2.8475,0 0,6.18931 c -0.8237,-0.9884 -2.071,-1.38847 -3.3183,-1.38847 m 0.7296,9.43692 c -1.8827,0 -2.777,-1.52967 -2.777,-3.45942 0,-1.92974 0.8943,-3.38882 2.777,-3.38882 1.8591,0 2.7063,1.45908 2.7063,3.38882 0,1.92975 -0.8472,3.45942 -2.7063,3.45942"
   style="font-size:23.53348923px;font-style:normal;font-variant:normal;font-weight:bold;font-stretch:normal;text-align:start;line-height:125%;letter-spacing:0px;word-spacing:0px;writing-mode:lr-tb;text-anchor:start;fill:#000000;fill-opacity:1;stroke:none;font-family:HK Grotesk;-inkscape-font-specification:HK Grotesk Bold"
   id="path3202"
   inkscape:connector-curvature="0" /><path
   d="m 1053.623,-408.54484 c 0.9649,0 1.9533,-0.44714 2.7535,-1.62381 l 0,1.45907 2.7299,0 0,-11.48434 -2.7064,0 0,5.31857 c 0,2.04741 -1.0825,3.67122 -2.6593,3.67122 -0.5177,0 -0.8472,-0.0706 -1.1531,-0.30593 l -0.1177,-0.0941 -1.2708,2.30629 0.094,0.0706 c 0.659,0.51773 1.6238,0.68247 2.3298,0.68247"
   style="font-size:23.53348923px;font-style:normal;font-variant:normal;font-weight:bold;font-stretch:normal;text-align:start;line-height:125%;letter-spacing:0px;word-spacing:0px;writing-mode:lr-tb;text-anchor:start;fill:#000000;fill-opacity:1;stroke:none;font-family:HK Grotesk;-inkscape-font-specification:HK Grotesk Bold"
   id="path3208"
   inkscape:connector-curvature="0" /><path
   d="m 1064.8284,-418.0053 c 2.118,0 2.9652,1.62381 2.9652,3.50648 0,1.88268 -0.8472,3.50649 -2.9652,3.50649 -2.1181,0 -2.9653,-1.62381 -2.9653,-3.50649 0,-1.88267 0.8472,-3.50648 2.9653,-3.50648 m 0,9.43692 c 3.5535,0 6.001,-2.68282 6.001,-5.93044 0,-3.24761 -2.4475,-5.93043 -6.001,-5.93043 -3.5536,0 -6.0011,2.68282 -6.0011,5.93043 0,3.24762 2.4475,5.93044 6.0011,5.93044"
   style="font-size:23.53348923px;font-style:normal;font-variant:normal;font-weight:bold;font-stretch:normal;text-align:start;line-height:125%;letter-spacing:0px;word-spacing:0px;writing-mode:lr-tb;text-anchor:start;fill:#000000;fill-opacity:1;stroke:none;font-family:HK Grotesk;-inkscape-font-specification:HK Grotesk Bold"
   id="path3214"
   inkscape:connector-curvature="0" /><path
   d="m 1078.2262,-420.42925 c -3.1064,0 -4.8949,2.80048 -4.8949,5.9775 0,3.17702 1.7885,5.97751 4.8949,5.97751 1.2473,0 2.4475,-0.32947 3.3183,-1.38848 l 0,1.15314 2.8475,0 0,-16.52051 -2.8475,0 0,6.18931 c -0.8237,-0.9884 -2.071,-1.38847 -3.3183,-1.38847 m 0.7296,9.43692 c -1.8827,0 -2.777,-1.52967 -2.777,-3.45942 0,-1.92974 0.8943,-3.38882 2.777,-3.38882 1.8591,0 2.7063,1.45908 2.7063,3.38882 0,1.92975 -0.8472,3.45942 -2.7063,3.45942"
   style="font-size:23.53348923px;font-style:normal;font-variant:normal;font-weight:bold;font-stretch:normal;text-align:start;line-height:125%;letter-spacing:0px;word-spacing:0px;writing-mode:lr-tb;text-anchor:start;fill:#000000;fill-opacity:1;stroke:none;font-family:HK Grotesk;-inkscape-font-specification:HK Grotesk Bold"
   id="path3220"
   inkscape:connector-curvature="0" /><path
   d="m 1089.199,-403.95585 c 0.9649,0 1.9533,-0.44714 2.7534,-1.62381 l 0,1.45907 2.7299,0 0,-11.48434 -2.7063,0 0,5.31857 c 0,2.04741 -1.0826,3.67122 -2.6593,3.67122 -0.5177,0 -0.8472,-0.0706 -1.1531,-0.30593 l -0.1177,-0.0941 -1.2708,2.30629 0.094,0.0706 c 0.659,0.51773 1.6238,0.68247 2.3298,0.68247"
   style="font-size:23.53348923px;font-style:normal;font-variant:normal;font-weight:bold;font-stretch:normal;text-align:start;line-height:125%;letter-spacing:0px;word-spacing:0px;writing-mode:lr-tb;text-anchor:start;fill:#000000;fill-opacity:1;stroke:none;font-family:HK Grotesk;-inkscape-font-specification:HK Grotesk Bold"
   id="path3222"
   inkscape:connector-curvature="0" /><path
   d="m 1099.0188,-420.19392 -2.7769,0 0,11.48434 2.7769,0 0,-11.48434 m 0.071,13.15522 -2.9417,0 0,3.15349 2.9417,0 0,-3.15349"
   style="font-size:23.53348923px;font-style:normal;font-variant:normal;font-weight:bold;font-stretch:normal;text-align:start;line-height:125%;letter-spacing:0px;word-spacing:0px;writing-mode:lr-tb;text-anchor:start;fill:#000000;fill-opacity:1;stroke:none;font-family:HK Grotesk;-inkscape-font-specification:HK Grotesk Bold"
   id="path3228"
   inkscape:connector-curvature="0" /><path
   d="m 1107.0153,-415.36955 -2.8241,0 c 0.047,-1.43555 1.3885,-2.68282 2.9888,-2.68282 1.0825,0 1.8356,0.54127 1.8356,1.29434 0,0.72954 -0.7295,1.38848 -2.0003,1.38848 m 0.6824,-5.0597 c -1.5296,0 -2.7063,0.44713 -3.6947,1.88267 l -0.306,-1.64734 -2.1886,0 0,6.96591 c 0,2.80049 1.8356,4.7067 4.9656,4.7067 2.1651,0 3.6477,-0.87074 4.8244,-2.47102 l -2.1416,-1.55321 c -0.4471,0.80014 -1.4355,1.57675 -2.5887,1.57675 -1.6708,0 -2.3769,-0.91781 -2.3769,-2.37688 l 2.9888,0 c 2.5651,0 4.7067,-0.77661 4.7067,-3.41236 0,-2.25921 -2.0004,-3.67122 -4.189,-3.67122"
   style="font-size:23.53348923px;font-style:normal;font-variant:normal;font-weight:bold;font-stretch:normal;text-align:start;line-height:125%;letter-spacing:0px;word-spacing:0px;writing-mode:lr-tb;text-anchor:start;fill:#000000;fill-opacity:1;stroke:none;font-family:HK Grotesk;-inkscape-font-specification:HK Grotesk Bold"
   id="path3234"
   inkscape:connector-curvature="0" /><path
   d="m 1113.3326,-419.93505 0,2.54161 c 0,0 0.6825,-0.40006 1.9297,-0.40006 0.5413,0 1.059,0.1412 1.059,0.94134 l 0,5.74217 -2.9887,0 0,2.54161 2.9887,0 0,4.8479 2.6358,-2.00034 0,-2.84756 1.9062,0 0,-2.54161 -1.8592,0 0,-5.76571 c 0,-1.92974 -1.0119,-3.41235 -3.3417,-3.41235 -1.5767,0 -2.3298,0.353 -2.3298,0.353"
   style="font-size:23.53348923px;font-style:normal;font-variant:normal;font-weight:bold;font-stretch:normal;text-align:start;line-height:125%;letter-spacing:0px;word-spacing:0px;writing-mode:lr-tb;text-anchor:start;fill:#000000;fill-opacity:1;stroke:none;font-family:HK Grotesk;-inkscape-font-specification:HK Grotesk Bold"
   id="path3236"
   inkscape:connector-curvature="0" /><path
   d="m 1125.8617,-420.19392 -2.7769,0 0,11.48434 2.7769,0 0,-11.48434 m 0.071,13.15522 -2.9417,0 0,3.15349 2.9417,0 0,-3.15349"
   style="font-size:23.53348923px;font-style:normal;font-variant:normal;font-weight:bold;font-stretch:normal;text-align:start;line-height:125%;letter-spacing:0px;word-spacing:0px;writing-mode:lr-tb;text-anchor:start;fill:#000000;fill-opacity:1;stroke:none;font-family:HK Grotesk;-inkscape-font-specification:HK Grotesk Bold"
   id="path3242"
   inkscape:connector-curvature="0" /><path
   d="m 1134.1877,-418.0053 c 2.118,0 2.9652,1.62381 2.9652,3.50648 0,1.88268 -0.8472,3.50649 -2.9652,3.50649 -2.118,0 -2.9652,-1.62381 -2.9652,-3.50649 0,-1.88267 0.8472,-3.50648 2.9652,-3.50648 m 0,9.43692 c 3.5536,0 6.001,-2.68282 6.001,-5.93044 0,-3.24761 -2.4474,-5.93043 -6.001,-5.93043 -3.5535,0 -6.001,2.68282 -6.001,5.93043 0,3.24762 2.4475,5.93044 6.001,5.93044"
   style="font-size:23.53348923px;font-style:normal;font-variant:normal;font-weight:bold;font-stretch:normal;text-align:start;line-height:125%;letter-spacing:0px;word-spacing:0px;writing-mode:lr-tb;text-anchor:start;fill:#000000;fill-opacity:1;stroke:none;font-family:HK Grotesk;-inkscape-font-specification:HK Grotesk Bold"
   id="path3248"
   inkscape:connector-curvature="0" /><path
   d="m 1150.2213,-410.05099 0,1.34141 2.8476,0 0,-11.46081 -2.8476,0 0,6.25991 c 0,1.43554 -1.3178,2.77695 -2.871,2.77695 -1.4591,0 -1.8357,-1.10607 -1.8357,-2.51808 l 0,-6.54231 -2.8475,0 0,6.89531 c 0,2.40042 1.2237,4.7773 4.236,4.7773 1.1296,0 2.4004,-0.40007 3.3182,-1.52968"
   style="font-size:23.53348923px;font-style:normal;font-variant:normal;font-weight:bold;font-stretch:normal;text-align:start;line-height:125%;letter-spacing:0px;word-spacing:0px;writing-mode:lr-tb;text-anchor:start;fill:#000000;fill-opacity:1;stroke:none;font-family:HK Grotesk;-inkscape-font-specification:HK Grotesk Bold"
   id="path3254"
   inkscape:connector-curvature="0" /><path
   d="m 1029.1829,-420.42925 c -3.1065,0 -4.895,2.80048 -4.895,5.9775 0,3.17702 1.7885,5.97751 4.895,5.97751 1.2472,0 2.4474,-0.32947 3.3182,-1.38848 l 0,1.15314 2.8475,0 0,-16.52051 -2.8475,0 0,6.18931 c -0.8237,-0.9884 -2.071,-1.38847 -3.3182,-1.38847 m 0.7295,9.43692 c -1.8827,0 -2.777,-1.52967 -2.777,-3.45942 0,-1.92974 0.8943,-3.38882 2.777,-3.38882 1.8591,0 2.7063,1.45908 2.7063,3.38882 0,1.92975 -0.8472,3.45942 -2.7063,3.45942"
   style="font-size:23.53348923px;font-style:normal;font-variant:normal;font-weight:bold;font-stretch:normal;text-align:start;line-height:125%;letter-spacing:0px;word-spacing:0px;writing-mode:lr-tb;text-anchor:start;fill:#000000;fill-opacity:1;stroke:none;font-family:HK Grotesk;-inkscape-font-specification:HK Grotesk Bold"
   id="path3260"
   inkscape:connector-curvature="0" /><path
   sodipodi:nodetypes="ccccc"
   inkscape:connector-curvature="0"
   id="canvas-7"
   d="m 10.629921,-5.7023438e-4 545.669289,0 0,765.35433023438 -545.669289,0 z"
   style="color:#000000;fill:#00ffff;fill-opacity:1;stroke:none;stroke-width:1;marker:none;visibility:visible;display:inline" /><path
   style="color:#000000;fill:#00ff00;fill-opacity:1;fill-rule:nonzero;stroke:none;stroke-width:1px;marker:none;visibility:visible;display:inline;overflow:visible;enable-background:accumulate"
   d="m 84.01575,166.77109 318.89764,0 0,726.37795 -318.89764,0 z"
   id="rect3119"
   inkscape:connector-curvature="0" /></g></svg>